<svg width="20" height="20" viewBox="0 0 20 20" fill="none" xmlns="http://www.w3.org/2000/svg">
<g id="vuesax/outline/heart">
<g id="heart">
<path id="Vector" d="M10 18.0417C9.74167 18.0417 9.49167 18.0084 9.28334 17.9334C6.10001 16.8417 1.04167 12.9667 1.04167 7.24171C1.04167 4.32504 3.40001 1.95837 6.30001 1.95837C7.70834 1.95837 9.02501 2.50837 10 3.49171C10.975 2.50837 12.2917 1.95837 13.7 1.95837C16.6 1.95837 18.9583 4.33337 18.9583 7.24171C18.9583 12.975 13.9 16.8417 10.7167 17.9334C10.5083 18.0084 10.2583 18.0417 10 18.0417ZM6.30001 3.20837C4.09167 3.20837 2.29167 5.01671 2.29167 7.24171C2.29167 12.9334 7.76667 16.1 9.69167 16.7584C9.84167 16.8084 10.1667 16.8084 10.3167 16.7584C12.2333 16.1 17.7167 12.9417 17.7167 7.24171C17.7167 5.01671 15.9167 3.20837 13.7083 3.20837C12.4417 3.20837 11.2667 3.80004 10.5083 4.82504C10.275 5.14171 9.74167 5.14171 9.50834 4.82504C8.73334 3.79171 7.56667 3.20837 6.30001 3.20837Z" fill="#2D2D2D"/>
</g>
</g>
</svg>
