<svg width="20" height="20" viewBox="0 0 20 20" fill="none" xmlns="http://www.w3.org/2000/svg">
<g id="vuesax/outline/directbox-send">
<g id="directbox-send">
<path id="Vector" d="M10 7.29174C9.65834 7.29174 9.375 7.00841 9.375 6.66674V3.17507L8.775 3.77507C8.53333 4.01674 8.13334 4.01674 7.89167 3.77507C7.65 3.53341 7.65 3.13341 7.89167 2.89174L9.55834 1.22507C9.73334 1.05007 10.0083 0.991739 10.2417 1.09174C10.475 1.18341 10.625 1.41674 10.625 1.66674V6.66674C10.625 7.00841 10.3417 7.29174 10 7.29174Z" fill="#2D2D2D"/>
<path id="Vector_2" d="M11.6667 3.95828C11.5083 3.95828 11.35 3.89995 11.225 3.77495L9.55833 2.10828C9.31666 1.86662 9.31666 1.46662 9.55833 1.22495C9.79999 0.983285 10.2 0.983285 10.4417 1.22495L12.1083 2.89162C12.35 3.13328 12.35 3.53328 12.1083 3.77495C11.9833 3.89995 11.825 3.95828 11.6667 3.95828Z" fill="#2D2D2D"/>
<path id="Vector_3" d="M13.3333 18.9583H6.66667C1.875 18.9583 1.875 16.4167 1.875 14.1667V13.3333C1.875 11.475 1.875 9.375 5.83333 9.375C6.825 9.375 7.19167 9.61667 7.70833 10C7.73333 10.025 7.76667 10.0417 7.79167 10.075L8.64167 10.975C9.35833 11.7333 10.6583 11.7333 11.375 10.975L12.225 10.075C12.25 10.05 12.275 10.025 12.3083 10C12.825 9.60833 13.1917 9.375 14.1833 9.375C18.1417 9.375 18.1417 11.475 18.1417 13.3333V14.1667C18.125 17.35 16.5167 18.9583 13.3333 18.9583ZM5.83333 10.625C3.125 10.625 3.125 11.475 3.125 13.3333V14.1667C3.125 16.45 3.125 17.7083 6.66667 17.7083H13.3333C15.8167 17.7083 16.875 16.65 16.875 14.1667V13.3333C16.875 11.475 16.875 10.625 14.1667 10.625C13.5667 10.625 13.4417 10.7 13.0833 10.9667L12.275 11.825C11.675 12.4583 10.8667 12.8083 10 12.8083C9.13333 12.8083 8.325 12.4583 7.725 11.825L6.91667 10.9667C6.55833 10.7 6.43333 10.625 5.83333 10.625Z" fill="#2D2D2D"/>
<path id="Vector_4" d="M4.16667 10.625C3.82501 10.625 3.54167 10.3416 3.54167 9.99998V8.33331C3.54167 6.71664 3.54167 4.70831 6.60834 4.41664C6.94167 4.37498 7.25834 4.63331 7.29167 4.98331C7.32501 5.32498 7.075 5.63331 6.725 5.66664C4.79167 5.84164 4.79167 6.62498 4.79167 8.33331V9.99998C4.79167 10.3416 4.50834 10.625 4.16667 10.625Z" fill="#2D2D2D"/>
<path id="Vector_5" d="M15.8333 10.625C15.4917 10.625 15.2083 10.3416 15.2083 9.99998V8.33331C15.2083 6.62498 15.2083 5.84165 13.275 5.65831C12.9333 5.62498 12.6833 5.31665 12.7167 4.97498C12.75 4.63331 13.05 4.37498 13.4 4.41665C16.4667 4.70831 16.4667 6.71665 16.4667 8.33331V9.99998C16.4583 10.3416 16.175 10.625 15.8333 10.625Z" fill="#2D2D2D"/>
</g>
</g>
</svg>
