<svg width="20" height="20" viewBox="0 0 20 20" fill="none" xmlns="http://www.w3.org/2000/svg">
<g id="vuesax/outline/shop">
<g id="shop">
<path id="Vector" d="M12.25 18.9583H7.75C3.63333 18.9583 1.88333 17.2 1.88333 13.0916V9.34998C1.88333 9.00831 2.16666 8.72498 2.50833 8.72498C2.85 8.72498 3.13333 9.00831 3.13333 9.34998V13.0916C3.13333 16.5 4.34166 17.7083 7.75 17.7083H12.2417C15.65 17.7083 16.8583 16.5 16.8583 13.0916V9.34998C16.8583 9.00831 17.1417 8.72498 17.4833 8.72498C17.825 8.72498 18.1083 9.00831 18.1083 9.34998V13.0916C18.1167 17.2 16.3583 18.9583 12.25 18.9583Z" fill="#0C68F4"/>
<path id="Vector_2" d="M10 10.625C9.08334 10.625 8.25001 10.2666 7.65834 9.60829C7.06668 8.94996 6.79168 8.09163 6.88334 7.17496L7.44168 1.60829C7.47501 1.29163 7.74168 1.04163 8.06668 1.04163H11.9583C12.2833 1.04163 12.55 1.28329 12.5833 1.60829L13.1417 7.17496C13.2333 8.09163 12.9583 8.94996 12.3667 9.60829C11.75 10.2666 10.9167 10.625 10 10.625ZM8.62501 2.29163L8.12501 7.29996C8.06668 7.85829 8.23334 8.38329 8.58334 8.76663C9.29168 9.54996 10.7083 9.54996 11.4167 8.76663C11.7667 8.37496 11.9333 7.84996 11.875 7.29996L11.375 2.29163H8.62501Z" fill="#0C68F4"/>
<path id="Vector_3" d="M15.2583 10.625C13.5667 10.625 12.0583 9.25829 11.8833 7.57496L11.3 1.73329C11.2833 1.55829 11.3417 1.38329 11.4583 1.24996C11.575 1.11663 11.7417 1.04163 11.925 1.04163H14.4667C16.9167 1.04163 18.0583 2.06663 18.4 4.58329L18.6333 6.89996C18.7333 7.88329 18.4333 8.81663 17.7917 9.52496C17.15 10.2333 16.25 10.625 15.2583 10.625ZM12.6167 2.29163L13.1333 7.44996C13.2417 8.49163 14.2083 9.37496 15.2583 9.37496C15.8917 9.37496 16.4583 9.13329 16.8667 8.69163C17.2667 8.24996 17.45 7.65829 17.3917 7.02496L17.1583 4.73329C16.9 2.84996 16.2917 2.29163 14.4667 2.29163H12.6167Z" fill="#0C68F4"/>
<path id="Vector_4" d="M4.69999 10.625C3.70832 10.625 2.80832 10.2333 2.16665 9.52496C1.52499 8.81663 1.22499 7.88329 1.32499 6.89996L1.54999 4.60829C1.89999 2.06663 3.04165 1.04163 5.49165 1.04163H8.03332C8.20832 1.04163 8.37499 1.11663 8.49999 1.24996C8.62499 1.38329 8.67499 1.55829 8.65832 1.73329L8.07499 7.57496C7.89999 9.25829 6.39165 10.625 4.69999 10.625ZM5.49165 2.29163C3.66665 2.29163 3.05832 2.84163 2.79165 4.74996L2.56665 7.02496C2.49999 7.65829 2.69165 8.24996 3.09165 8.69163C3.49165 9.13329 4.05832 9.37496 4.69999 9.37496C5.74999 9.37496 6.72499 8.49163 6.82499 7.44996L7.34165 2.29163H5.49165Z" fill="#0C68F4"/>
<path id="Vector_5" d="M12.0833 18.9583H7.91666C7.57499 18.9583 7.29166 18.675 7.29166 18.3333V16.25C7.29166 14.5 8.24999 13.5416 9.99999 13.5416C11.75 13.5416 12.7083 14.5 12.7083 16.25V18.3333C12.7083 18.675 12.425 18.9583 12.0833 18.9583ZM8.54166 17.7083H11.4583V16.25C11.4583 15.2 11.05 14.7916 9.99999 14.7916C8.94999 14.7916 8.54166 15.2 8.54166 16.25V17.7083Z" fill="#0C68F4"/>
</g>
</g>
</svg>
