<svg width="20" height="20" viewBox="0 0 20 20" fill="none" xmlns="http://www.w3.org/2000/svg">
<g id="vuesax/outline/truck">
<g id="truck">
<path id="Vector" d="M10.8334 12.2916H1.66669C1.32502 12.2916 1.04169 12.0083 1.04169 11.6666V4.99996C1.04169 2.81663 2.81669 1.04163 5.00002 1.04163H12.5C12.8417 1.04163 13.125 1.32496 13.125 1.66663V9.99996C13.125 11.2666 12.1 12.2916 10.8334 12.2916ZM2.29169 11.0416H10.8334C11.4084 11.0416 11.875 10.575 11.875 9.99996V2.29163H5.00002C3.50835 2.29163 2.29169 3.50829 2.29169 4.99996V11.0416Z" fill="#0C68F4"/>
<path id="Vector_2" d="M15.8334 17.2916H15C14.6584 17.2916 14.375 17.0083 14.375 16.6666C14.375 16.0916 13.9084 15.625 13.3334 15.625C12.7584 15.625 12.2917 16.0916 12.2917 16.6666C12.2917 17.0083 12.0084 17.2916 11.6667 17.2916H8.33335C7.99169 17.2916 7.70835 17.0083 7.70835 16.6666C7.70835 16.0916 7.24169 15.625 6.66669 15.625C6.09169 15.625 5.62502 16.0916 5.62502 16.6666C5.62502 17.0083 5.34169 17.2916 5.00002 17.2916H4.16669C2.44169 17.2916 1.04169 15.8916 1.04169 14.1666V11.6666C1.04169 11.325 1.32502 11.0416 1.66669 11.0416H10.8334C11.4084 11.0416 11.875 10.575 11.875 9.99996V4.16663C11.875 3.82496 12.1584 3.54163 12.5 3.54163H14.0334C14.8584 3.54163 15.6167 3.9833 16.025 4.69997L17.45 7.19163C17.5584 7.3833 17.5584 7.62496 17.45 7.81663C17.3417 8.0083 17.1334 8.12496 16.9084 8.12496H15.8334C15.7167 8.12496 15.625 8.21663 15.625 8.33329V10.8333C15.625 10.95 15.7167 11.0416 15.8334 11.0416H18.3334C18.675 11.0416 18.9584 11.325 18.9584 11.6666V14.1666C18.9584 15.8916 17.5584 17.2916 15.8334 17.2916ZM15.5417 16.0416H15.8334C16.8667 16.0416 17.7084 15.2 17.7084 14.1666V12.2916H15.8334C15.0334 12.2916 14.375 11.6333 14.375 10.8333V8.33329C14.375 7.53329 15.025 6.87496 15.8334 6.87496L14.9417 5.31663C14.7583 4.99163 14.4084 4.79163 14.0334 4.79163H13.125V9.99996C13.125 11.2666 12.1 12.2916 10.8334 12.2916H2.29169V14.1666C2.29169 15.2 3.13335 16.0416 4.16669 16.0416H4.45836C4.73336 15.0833 5.61669 14.375 6.66669 14.375C7.71669 14.375 8.60002 15.0833 8.87502 16.0416H11.1333C11.4083 15.0833 12.2917 14.375 13.3417 14.375C14.3917 14.375 15.2667 15.0833 15.5417 16.0416Z" fill="#0C68F4"/>
<path id="Vector_3" d="M6.66667 18.9583C5.4 18.9583 4.375 17.9333 4.375 16.6667C4.375 15.4 5.4 14.375 6.66667 14.375C7.93333 14.375 8.95833 15.4 8.95833 16.6667C8.95833 17.9333 7.93333 18.9583 6.66667 18.9583ZM6.66667 15.625C6.09167 15.625 5.625 16.0917 5.625 16.6667C5.625 17.2417 6.09167 17.7083 6.66667 17.7083C7.24167 17.7083 7.70833 17.2417 7.70833 16.6667C7.70833 16.0917 7.24167 15.625 6.66667 15.625Z" fill="#0C68F4"/>
<path id="Vector_4" d="M13.3334 18.9583C12.0667 18.9583 11.0417 17.9333 11.0417 16.6667C11.0417 15.4 12.0667 14.375 13.3334 14.375C14.6 14.375 15.625 15.4 15.625 16.6667C15.625 17.9333 14.6 18.9583 13.3334 18.9583ZM13.3334 15.625C12.7584 15.625 12.2917 16.0917 12.2917 16.6667C12.2917 17.2417 12.7584 17.7083 13.3334 17.7083C13.9084 17.7083 14.375 17.2417 14.375 16.6667C14.375 16.0917 13.9084 15.625 13.3334 15.625Z" fill="#0C68F4"/>
<path id="Vector_5" d="M18.3333 12.2917H15.8333C15.0333 12.2917 14.375 11.6333 14.375 10.8333V8.33333C14.375 7.53333 15.0333 6.875 15.8333 6.875H16.9083C17.1333 6.875 17.3417 6.99167 17.45 7.19167L18.875 9.69167C18.925 9.78334 18.9583 9.89167 18.9583 10V11.6667C18.9583 12.0083 18.675 12.2917 18.3333 12.2917ZM15.8333 8.125C15.7167 8.125 15.625 8.21667 15.625 8.33333V10.8333C15.625 10.95 15.7167 11.0417 15.8333 11.0417H17.7083V10.1667L16.5417 8.125H15.8333Z" fill="#0C68F4"/>
</g>
</g>
</svg>
